# xmcd
#
# Track frame offsets: 
#        150
#        14566
#        26861
#        40680
#        55368
#        71433
#        86001
#        98958
#        113821
#        130158
#        144249
#        155846
#        169874
#        182124
#        196765
#        211349
#        226619
#        241053
#
# Disc length: 3404 seconds
#
# Revision: 3
# Processed by: cddbd v1.5.2PL0 Copyright (c) Steve Scherf et al.
# Submitted via: ExactAudioCopyFreeDBPlugin 1.0
#
DISCID=f10d4a12
DTITLE=Various Artist - Blues Ladies
DYEAR=1900
DGENRE=Blues
TTITLE0=Mary Dixon - You can't sleep in my bed
TTITLE1=Mildred Bailey - St. Louis blues
TTITLE2=Alberta Hunter - You can't tell the difference after dark
TTITLE3=Ma Rainey - Jealous hearted woman
TTITLE4=Bessie Smith - Do your duty
TTITLE5=Ethel Waters - Sweet georgia brown
TTITLE6=Memphis Minnie - What's the matter with the mill
TTITLE7=Billie Holiday - Loveless love
TTITLE8=Maxine Sullivan - It aint necessarily so
TTITLE9=Bessie Smith - Reckless love
TTITLE10=Sister Rosetta Tharpe - Trouble in mind
TTITLE11=Gladys Bentley - How much can I stand
TTITLE12=Mildred Bailey - Rockin' chair
TTITLE13=Memphis Minnie - When the levee breaks
TTITLE14=Bessie Smith - Weeping willow blues
TTITLE15=Ethel Waters - Shake that thing
TTITLE16=Billie Holiday - I'm in a lowdown groove
TTITLE17=Ma Rainey - Ma Rainey's black bottom
EXTD=
EXTT0=MARY DIXON
EXTT1=MILDRED BAILEY
EXTT2=ALBERTA HUNTER
EXTT3=MA RAINEY
EXTT4=BESSIE SMITH
EXTT5=ETHEL WATERS
EXTT6=MEMPHIS MINNIE
EXTT7=BILLIE HOLIDAY
EXTT8=MAXINE SULLIVAN
EXTT9=BESSIE SMITH
EXTT10=SISTER ROSETTA THARPE
EXTT11=GLADYS BENTLEY
EXTT12=MILDRED BAILEY
EXTT13=MEMPHIS MINNIE
EXTT14=BESSIE SMITH
EXTT15=ETHEL WATERS
EXTT16=BILLIE HOLIDAY
EXTT17=MA RAINEY
PLAYORDER=
